HIERARCHY
ROOT Hips
{
 OFFSET 0.000000 0.000000 0.000000
 CHANNELS 6 Xposition Yposition Zposition Yrotation Xrotation Zrotation
 JOINT Chest
 {
  OFFSET 0.000000 9.585900 0.002600
  CHANNELS 3 Yrotation Xrotation Zrotation
  JOINT Chest2
  {
   OFFSET 0.000000 9.601200 -0.005300
   CHANNELS 3 Yrotation Xrotation Zrotation
   JOINT Chest3
   {
    OFFSET 0.000000 9.561800 0.000000
    CHANNELS 3 Yrotation Xrotation Zrotation
    JOINT Chest4
    {
     OFFSET 0.000000 9.552100 0.000000
     CHANNELS 3 Yrotation Xrotation Zrotation
     JOINT Neck
     {
      OFFSET 0.000000 14.453000 0.000000
      CHANNELS 3 Yrotation Xrotation Zrotation
      JOINT Head
      {
       OFFSET 0.000000 8.936500 -0.011300
       CHANNELS 3 Yrotation Xrotation Zrotation
       End Site
       {
        OFFSET 0.000000 17.073600 -0.006000
       }
      }
     }
     JOINT RightCollar
     {
      OFFSET -2.921100 9.558500 0.000000
      CHANNELS 3 Yrotation Xrotation Zrotation
      JOINT RightShoulder
      {
       OFFSET -13.519700 0.000000 0.000000
       CHANNELS 3 Yrotation Xrotation Zrotation
       JOINT RightElbow
       {
        OFFSET 0.000000 -29.696600 0.000000
        CHANNELS 3 Yrotation Xrotation Zrotation
        JOINT RightWrist
        {
         OFFSET 0.000000 -24.004700 0.000000
         CHANNELS 3 Yrotation Xrotation Zrotation
         End Site
         {
          OFFSET 0.000000 -17.728500 0.000000
         }
        }
       }
      }
     }
     JOINT LeftCollar
     {
      OFFSET 2.921100 9.558500 0.000000
      CHANNELS 3 Yrotation Xrotation Zrotation
      JOINT LeftShoulder
      {
       OFFSET 13.519700 0.000000 0.000000
       CHANNELS 3 Yrotation Xrotation Zrotation
       JOINT LeftElbow
       {
        OFFSET 0.000000 -29.696600 0.000000
        CHANNELS 3 Yrotation Xrotation Zrotation
        JOINT LeftWrist
        {
         OFFSET 0.000000 -24.004700 0.000000
         CHANNELS 3 Yrotation Xrotation Zrotation
         End Site
         {
          OFFSET 0.000000 -17.728500 0.000000
         }
        }
       }
      }
     }
    }
   }
  }
 }
 JOINT RightHip
 {
  OFFSET -7.771700 -0.012900 -0.001300
  CHANNELS 3 Yrotation Xrotation Zrotation
  JOINT RightKnee
  {
   OFFSET 0.000000 -40.869800 0.001200
   CHANNELS 3 Yrotation Xrotation Zrotation
   JOINT RightAnkle
   {
    OFFSET 0.000000 -39.717900 0.002100
    CHANNELS 3 Yrotation Xrotation Zrotation
    JOINT RightToe
    {
     OFFSET 0.000000 -4.965400 11.033500
     CHANNELS 3 Yrotation Xrotation Zrotation
     End Site
     {
      OFFSET 0.000000 -1.423100 5.872300
     }
    }
   }
  }
 }
 JOINT LeftHip
 {
  OFFSET 7.771700 -0.012900 -0.001300
  CHANNELS 3 Yrotation Xrotation Zrotation
  JOINT LeftKnee
  {
   OFFSET 0.000000 -40.869800 0.001200
   CHANNELS 3 Yrotation Xrotation Zrotation
   JOINT LeftAnkle
   {
    OFFSET 0.000000 -39.717900 0.002100
    CHANNELS 3 Yrotation Xrotation Zrotation
    JOINT LeftToe
    {
     OFFSET 0.000000 -4.965400 11.033500
     CHANNELS 3 Yrotation Xrotation Zrotation
     End Site
     {
      OFFSET 0.000000 -1.423100 5.872300
     }
    }
   }
  }
 }
}
MOTION
Frames: 9
Frame Time: 0.008333
0.000000 85.388000 0.000000 0.000000 -5.767877 0.000000 0.000000 11.653817 0.000000 0.000000 -5.885947 0.000000 0.000000 -0.000000 0.000000 0.000000 -0.000000 0.000000 0.000000 12.528835 0.000000 0.000000 0.711642 0.000000 0.000000 -0.000000 0.000000 0.000000 0.000000 -90.000000 0.000000 -2.309062 0.000000 0.000000 2.309062 0.000000 0.000000 -0.000000 0.000000 0.000000 -0.000000 90.000000 0.000000 -2.309062 0.000000 0.000000 2.309062 0.000000 0.000000 8.520406 0.000000 0.000000 1.905762 0.000000 -0.000000 -4.658285 0.000000 0.000000 -0.000000 0.000000 0.000000 8.520406 0.000000 0.000000 1.905762 0.000000 -0.000000 -4.658285 0.000000 0.000000 -0.000000 0.000000
-13.769891 57.709535 67.292986 176.110788 -31.442406 -2.877297 3.509773 20.587520 4.986577 0.330512 2.738759 0.355702 0.548838 4.469615 0.589466 2.500112 17.727429 2.621223 5.952136 13.873062 0.204417 11.133727 -9.822869 -1.924603 3.002128 -3.299958 -1.217300 10.072774 -16.140733 -15.671982 -45.665244 -82.120300 81.652911 13.769503 -18.588149 -48.945939 -7.041879 -4.533151 -4.005199 0.825192 -13.770631 -1.954891 -19.026612 -78.207161 -15.062903 -2.655566 -12.227174 29.714073 9.457013 -39.859321 -3.453661 -6.607512 67.511818 -7.202423 4.257431 7.059764 9.356911 -0.657710 0.657305 -0.292350 -9.539520 -46.699282 7.557755 26.787538 61.745566 23.854328 -16.143874 37.597038 1.652429 -0.115429 -17.222879 -6.384148
-13.770724 57.710402 67.293172 176.117139 -31.449379 -2.880554 3.497212 20.586022 4.959309 0.330339 2.737332 0.352980 0.548366 4.467704 0.584950 2.491723 17.726299 2.608591 6.112551 13.959601 0.275534 11.401892 -9.657443 -1.844177 3.010910 -3.310302 -1.225379 10.033365 -16.128562 -15.685262 -45.778543 -82.185375 81.754387 13.776208 -18.594034 -48.921421 -7.022287 -4.523202 -3.980773 0.826498 -13.797482 -1.947517 -19.616347 -78.327458 -14.430950 -2.660650 -12.188498 29.695149 9.454137 -39.850529 -3.453847 -6.613231 67.509073 -7.202593 4.247263 7.066541 9.347537 -0.650342 0.654647 -0.288316 -9.531909 -46.690254 7.548432 26.763371 61.745173 23.835160 -16.129826 37.599345 1.662629 -0.115728 -17.232520 -6.388324
-13.773030 57.710536 67.294869 176.115675 -31.447112 -2.873940 3.475111 20.572981 4.903167 0.328176 2.733988 0.348286 0.544910 4.462619 0.577240 2.505837 17.732908 2.622431 6.271933 14.050875 0.346084 11.668006 -9.483364 -1.763805 3.030751 -3.308894 -1.215550 9.999643 -16.122617 -15.705451 -45.790526 -82.257343 81.748188 13.719173 -18.615136 -48.884467 -7.007785 -4.543457 -3.988581 0.833811 -13.794493 -1.909374 -20.116025 -78.433851 -13.892809 -2.657357 -12.150815 29.670442 9.461510 -39.850725 -3.463966 -6.607319 67.504247 -7.194107 4.237668 7.072582 9.341158 -0.643775 0.654657 -0.285169 -9.514785 -46.687675 7.535072 26.764752 61.734315 23.833684 -16.134083 37.595204 1.674026 -0.111729 -17.233939 -6.394061
-13.774190 57.710950 67.296846 176.116015 -31.445208 -2.878267 3.463584 20.562690 4.884293 0.334216 2.738737 0.356671 0.535194 4.454132 0.563290 2.497467 17.730701 2.607770 6.427708 14.144634 0.416489 11.927085 -9.304908 -1.681875 3.051228 -3.303967 -1.208811 9.949758 -16.117135 -15.735160 -45.907553 -82.311717 81.858647 13.669774 -18.635655 -48.844212 -7.019768 -4.596219 -4.033438 0.860790 -13.841870 -1.836859 -20.391945 -78.441863 -13.582890 -2.626792 -12.104407 29.638027 9.459264 -39.851588 -3.460875 -6.603446 67.497770 -7.187701 4.232187 7.082450 9.337749 -0.638722 0.651035 -0.283610 -9.519133 -46.686969 7.540666 26.769782 61.731079 23.836757 -16.134580 37.590142 1.679470 -0.113468 -17.231056 -6.396614
-13.774641 57.712929 67.296910 176.109945 -31.458663 -2.886392 3.459265 20.564485 4.872824 0.341092 2.745457 0.365904 0.529901 4.447377 0.554654 2.486141 17.724991 2.588406 6.577711 14.238839 0.485785 12.175582 -9.125935 -1.599347 3.058586 -3.304017 -1.219873 9.891048 -16.105518 -15.753572 -46.118654 -82.349513 82.073436 13.761930 -18.617868 -48.833797 -7.002805 -4.591689 -4.023956 0.864879 -13.911134 -1.818320 -20.593504 -78.461549 -13.349927 -2.623230 -12.062743 29.609166 9.455678 -39.833650 -3.447270 -6.605550 67.485685 -7.184172 4.234712 7.085846 9.336263 -0.642409 0.653417 -0.285689 -9.522147 -46.669976 7.553613 26.785617 61.731872 23.846637 -16.119911 37.580343 1.698677 -0.131981 -17.237026 -6.396839
-13.775449 57.715391 67.296567 176.103695 -31.475584 -2.896309 3.463221 20.574613 4.875563 0.333400 2.736725 0.353445 0.541892 4.457832 0.570082 2.464772 17.713343 2.559143 6.720742 14.332286 0.551482 12.412214 -8.948642 -1.520637 3.063991 -3.304357 -1.230210 9.845967 -16.090745 -15.754637 -46.223303 -82.395251 82.164349 13.792225 -18.611853 -48.815247 -6.986250 -4.587055 -4.015765 0.866120 -13.963768 -1.796701 -20.759439 -78.487264 -13.155603 -2.649308 -12.020748 29.572813 9.445393 -39.813458 -3.427692 -6.601101 67.475324 -7.178731 4.237385 7.091055 9.337634 -0.642998 0.652772 -0.289494 -9.529640 -46.647808 7.573391 26.808009 61.732527 23.862600 -16.133907 37.559535 1.693733 -0.107203 -17.241471 -6.400370
-13.778311 57.717696 67.296495 176.097465 -31.489720 -2.898599 3.464231 20.582832 4.870260 0.325968 2.729780 0.342149 0.541053 4.456346 0.567255 2.462932 17.711929 2.550694 6.855157 14.426204 0.612021 12.634498 -8.770632 -1.448191 3.055487 -3.318219 -1.269132 9.807866 -16.063032 -15.723727 -46.344606 -82.440445 82.265929 13.795198 -18.608941 -48.795969 -6.980978 -4.595962 -4.021682 0.875504 -14.003961 -1.760719 -20.930237 -78.508854 -12.961745 -2.654434 -11.954789 29.510016 9.439672 -39.794128 -3.418615 -6.591398 67.464329 -7.169460 4.235145 7.092895 9.338626 -0.639889 0.655971 -0.292862 -9.532082 -46.628960 7.579056 26.827087 61.730090 23.872928 -16.123415 37.549505 1.710894 -0.107796 -17.244380 -6.407659
-13.781055 57.719504 67.297491 176.090434 -31.496672 -2.906210 3.451709 20.568688 4.841410 0.324754 2.727387 0.339300 0.539172 4.452403 0.562488 2.490156 17.730611 2.576884 6.966628 14.514574 0.655245 12.840320 -8.588162 -1.382531 3.061393 -3.313932 -1.266760 9.763488 -16.046303 -15.750646 -46.472995 -82.484084 82.370087 13.795065 -18.606770 -48.780970 -6.982170 -4.609998 -4.035651 0.878128 -14.044762 -1.729373 -21.159188 -78.531453 -12.710662 -2.657460 -11.870958 29.423747 9.432732 -39.782802 -3.404544 -6.606630 67.449649 -7.181836 4.241400 7.099410 9.337801 -0.642047 0.657386 -0.293313 -9.535946 -46.617663 7.589598 26.835681 61.730528 23.877488 -16.096233 37.534423 1.734196 -0.121148 -17.237986 -6.412075
